<svg width="99" height="68" viewBox="0 0 99 68" fill="none" xmlns="http://www.w3.org/2000/svg">
<path d="M77.5301 66.5914H79.3938L81.3818 59.6335H83.4443L83.9413 57.894H80.0151L77.5301 66.5914Z" fill="#F8FF13"/>
<path d="M82.3835 66.5914H84.2473L85.1667 63.3609H86.434C87.5647 63.3609 88.2356 62.8391 88.6457 61.4351L89.0433 60.0311C89.3787 58.8631 88.9563 57.894 87.602 57.894H84.8685L82.3835 66.5914ZM85.6389 61.7084L86.2477 59.5962H86.9807C87.2044 59.5962 87.2665 59.708 87.2044 59.9317L86.7944 61.3729C86.7322 61.5966 86.6453 61.7084 86.4465 61.7084H85.6389Z" fill="#F8FF13"/>
<path d="M88.3533 66.5914H90.217L91.211 63.1124H92.4038L91.4098 66.5914H93.2735L95.7585 57.894H93.8948L92.9008 61.3729H91.708L92.702 57.894H90.8383L88.3533 66.5914Z" fill="#F8FF13"/>
<path d="M8.2731 67.756H11.9096C17.0008 67.756 20.022 65.4062 21.8123 59.0842L23.3228 53.8252C24.0501 51.2517 23.6026 49.2376 21.8123 47.8948C24.162 46.7759 25.6726 44.9297 26.4558 42.0764L27.6307 37.6566C29.0854 32.3976 27.2391 28.0337 21.1409 28.0337H17.7841C12.6929 28.0337 9.67177 30.3835 7.88147 36.7055L6.65064 41.1253H14.0356L15.0986 37.2649C15.4902 35.8663 15.9938 35.083 17.3365 35.083H18.2876C19.7422 35.083 20.1898 35.7544 19.7982 37.153L18.4554 41.7966C18.0638 43.1953 17.5603 43.9786 16.2176 43.9786H13.1964L11.0145 51.6992H13.8678C15.3224 51.6992 15.714 52.3706 15.3224 53.7693L13.9797 58.5248C13.5881 59.9234 13.0845 60.7067 11.7418 60.7067H10.511C9.05635 60.7067 8.60878 60.0353 9.00041 58.6367L10.3991 53.7693H3.01409L1.78325 58.1331C0.272688 63.3921 2.17488 67.756 8.2731 67.756Z" fill="#F8FF13"/>
<path d="M33.5292 67.756H37.5574C42.6485 67.756 45.6697 65.4062 47.46 59.0842L53.5582 37.6566C55.0688 32.3976 53.1666 28.0337 47.0684 28.0337H43.0402C37.949 28.0337 34.9279 30.3835 33.1376 36.7055L27.0394 58.1331C25.5288 63.3921 27.431 67.756 33.5292 67.756ZM36.5503 60.4829C35.0957 60.4829 34.6481 59.8115 35.0398 58.4129L41.0261 37.4887C41.4177 36.09 41.9212 35.3068 43.264 35.3068H44.0472C45.5018 35.3068 45.9494 35.9782 45.5578 37.3768L39.5715 58.301C39.1798 59.6997 38.6763 60.4829 37.3336 60.4829H36.5503Z" fill="#F8FF13"/>
<path d="M59.2626 67.756H63.2908C68.3819 67.756 71.4031 65.4062 73.1934 59.0842L79.2916 37.6566C80.8022 32.3976 78.9 28.0337 72.8018 28.0337H68.7736C63.6824 28.0337 60.6613 30.3835 58.871 36.7055L52.7728 58.1331C51.2622 63.3921 53.1644 67.756 59.2626 67.756ZM62.2837 60.4829C60.8291 60.4829 60.3815 59.8115 60.7732 58.4129L66.7595 37.4887C67.1511 36.09 67.6546 35.3068 68.9974 35.3068H69.7806C71.2352 35.3068 71.6828 35.9782 71.2912 37.3768L65.3049 58.301C64.9132 59.6997 64.4097 60.4829 63.067 60.4829H62.2837Z" fill="#F8FF13"/>
<path d="M0.481201 22.836H5.24307L7.78274 13.9472H11.751L13.0208 9.50278H9.05257L10.3224 5.05837H15.2748L16.5446 0.613953H6.83037L0.481201 22.836Z" fill="#F8FF13"/>
<path d="M12.7269 22.836H17.4888L19.965 14.2012H20.8856V22.836H25.5522L25.4252 13.7885C26.949 13.1536 27.9649 11.725 28.6633 9.28056L29.5839 6.07423C30.4411 3.09013 29.3617 0.613953 25.9014 0.613953H19.0761L12.7269 22.836ZM21.1078 10.1694L22.5999 4.96313H24.3141C24.8856 4.96313 25.0443 5.24884 24.8856 5.82027L23.9014 9.31231C23.7427 9.88373 23.5205 10.1694 23.0126 10.1694H21.1078Z" fill="#F8FF13"/>
<path d="M27.9178 22.836H37.4733L38.7431 18.3916H33.886L35.1558 13.9472H39.6637L40.9336 9.50278H36.4257L37.6955 5.05837H42.5526L43.8224 0.613953H34.2669L27.9178 22.836Z" fill="#F8FF13"/>
<path d="M40.6595 22.836H50.215L51.4848 18.3916H46.6277L47.8976 13.9472H52.4055L53.6753 9.50278H49.1674L50.4372 5.05837H55.2943L56.5642 0.613953H47.0087L40.6595 22.836Z" fill="#F8FF13"/>
<path d="M53.56 22.836H61.4329C64.3218 22.836 66.0361 21.5027 67.0519 17.9154L67.7186 15.598C68.1948 13.9789 68.0678 12.5821 67.3059 11.6615C68.4488 10.8361 69.3059 9.43929 69.8773 7.37581L70.2583 6.07423C71.1154 3.09013 70.0361 0.613953 66.5758 0.613953H59.9091L53.56 22.836ZM62.0044 9.59802L63.3377 4.96313H65.2424C65.8139 4.96313 65.9726 5.24884 65.8139 5.82027L64.9885 8.74088C64.8297 9.31231 64.6075 9.59802 64.0996 9.59802H62.0044ZM59.4329 18.6138L60.798 13.852H62.7028C63.2742 13.852 63.4329 14.1377 63.2742 14.7091L62.417 17.7567C62.2583 18.3281 62.0361 18.6138 61.5282 18.6138H59.4329Z" fill="#F8FF13"/>
<path d="M68.6851 22.836H78.2406L79.5104 18.3916H74.6533L75.9232 13.9472H80.4311L81.7009 9.50278H77.193L78.4628 5.05837H83.3199L84.5898 0.613953H75.0343L68.6851 22.836Z" fill="#F8FF13"/>
<path d="M83.1642 22.836H87.9261L93.0054 5.05837H96.8149L98.0847 0.613953H85.7038L84.434 5.05837H88.2435L83.1642 22.836Z" fill="#F8FF13"/>
</svg>
