<svg width="92" height="32" viewBox="0 0 92 32" fill="none" xmlns="http://www.w3.org/2000/svg">
<path d="M5.75948 32L9.38268 18.9941H0L5.43849 0H66.9517L63.3285 12.7919H91.6905L86.3627 31.9779H5.75948V32Z" fill="black"/>
<path d="M26.543 6.92906L25.8051 9.38265H22.0675L22.8054 6.92906H26.543ZM20.4662 15.2454L21.3185 12.1536H25.3771C27.5097 12.1536 28.7863 11.1979 29.4356 9.16866L29.7529 7.99536C30.4909 5.44215 29.3213 3.73755 26.5504 3.73755H9.0616L5.7594 15.1421H20.4662V15.2454Z" fill="#F8FF13"/>
<path d="M35.9259 6.92915H37.3131V10.5523H33.9039L35.9259 6.92915ZM31.2364 15.2455L32.3027 13.3269H37.3131V15.2455H40.6338V3.84094H34.2213L27.5062 15.2455H31.2364Z" fill="#F8FF13"/>
<path d="M47.3303 6.92915H50.9535L50.3152 9.38274H46.5813L47.3303 6.92915ZM53.9421 9.16874L54.2594 8.10244C54.9973 5.43485 53.8277 3.84094 51.0568 3.84094H44.8767L41.5561 15.2455H44.9653L45.8176 12.1536H47.9649L48.9206 15.2455H52.4404L51.3742 11.9249C52.6655 11.519 53.5178 10.6667 53.9421 9.16874Z" fill="#F8FF13"/>
<path d="M57.141 15.2455L60.4617 3.84094H57.0525L53.7318 15.2455H57.141Z" fill="#F8FF13"/>
<path d="M35.8225 16.8467L31.8783 21.4329L30.384 16.8467H15.5628L12.3602 28.2513H27.0707L28.886 21.9569L30.0556 25.4767H32.1919L35.3908 21.7502L33.5755 28.2587H36.9847L40.1873 16.8726H35.8225V16.8467Z" fill="#F8FF13"/>
<path d="M44.4561 23.5581L46.4891 19.9349H47.8763V23.5581H44.4561ZM44.7734 16.8467L38.0583 28.2513H41.8992L42.9655 26.329H47.9649V28.2513H51.2855V16.8467H44.7734Z" fill="#F8FF13"/>
<path d="M62.7898 20.1489L63.6421 16.8467H53.3112L52.3556 20.1489H56.0821L53.8425 28.2661H57.2517L59.4913 20.1489H62.7898Z" fill="#F8FF13"/>
<path d="M67.2653 20.1489H72.4898L73.4454 16.8467H67.8888C65.7525 16.8467 64.4796 17.8024 63.8303 19.8316L62.6606 23.9898C61.9227 26.6574 63.0886 28.2513 65.8595 28.2513H70.1395L71.0951 24.9307H65.878L67.2653 20.1489Z" fill="#F8FF13"/>
<path d="M82.1898 16.8467L81.0165 21.0012H77.1793L78.3489 16.8467H74.9434L71.6227 28.2513H75.0319L76.2016 24.1928H80.1457L78.9724 28.2513H82.3816L85.599 16.8467H82.1898Z" fill="#F8FF13"/>
</svg>
